PathFileType	4	(X/Y/Z)	4_coords_data.trc
DataRate	CameraRate	NumFrames	NumMarkers	Units	OrigDataRate	OrigDataStartFrame	OrigNumFrames
30.0	30.0	8	21	m	30.0	23	44
Frame#	Time	THUMB_TIP	THUMB_IP	THUMB_MCP	THUMB_CMC	INDEX_TIP	INDEX_DIP	INDEX_PIP	INDEX_MCP	MIDDLE_TIP	MIDDLE_DIP	MIDDLE_PIP	MIDDLE_MCP	RING_TIP	RING_DIP	RING_PIP	RING_MCP	PINKY_TIP	PINKY_DIP	PINKY_PIP	PINKY_MCP	WRIST
X1	Y1	Z1	X2	Y2	Z2	X3	Y3	Z3	X4	Y4	Z4	X5	Y5	Z5	X6	Y6	Z6	X7	Y7	Z7	X8	Y8	Z8	X9	Y9	Z9	X10	Y10	Z10	X11	Y11	Z11	X12	Y12	Z12	X13	Y13	Z13	X14	Y14	Z14	X15	Y15	Z15	X16	Y16	Z16	X17	Y17	Z17	X18	Y18	Z18	X19	Y19	Z19	X20	Y20	Z20	X21	Y21	Z21
22	0.7333333333333333	-0.039061298370361326	-0.09330699920654296	1.0109000244140625	-0.03597499847412109	-0.06724919891357421	1.024719970703125	-0.046122798919677736	-0.04937260055541992	1.0511800537109375	-0.047293201446533206	-0.010959199905395508	1.067989990234375	-0.042046699523925785	-0.017379400253295898	1.0420699462890626	-0.0267775993347168	-0.016648399353027345	1.0313399658203124	-0.022382900238037108	-0.01974169921875	1.0055499877929688	-0.06706009674072265	-0.02247520065307617	1.008010009765625	-0.033026199340820316	-0.0020758600234985353	1.0438699951171875	-0.024977699279785156	0.001318819999694824	1.035050048828125	-0.01878770065307617	0.0034451498985290517	1.0054299926757813	-0.06687570190429687	0.004063419818878174	1.0033800048828125	-0.036478298187255856	0.013494099617004394	1.0495	-0.02619599914550781	0.017742799758911132	1.043949951171875	-0.014425900459289551	0.024350000381469727	1.0190800170898437	-0.06027569961547852	0.029087900161743164	1.0086699829101562	-0.03997050094604492	0.030702699661254884	1.0510699462890625	-0.02587310028076172	0.034556098937988285	1.0443900146484375	-0.020212799072265624	0.04485340118408203	1.0257099609375	-0.05606349945068359	0.0519457015991211	1.0179600219726563	-0.06872319793701172	0.015617500305175782	1.088530029296875
23	0.7666666666666667	-0.03904750061035156	-0.09328880310058593	1.0111599731445313	-0.03602840042114258	-0.06720439910888672	1.024969970703125	-0.04611840057373047	-0.049291999816894534	1.0513499755859375	-0.04728799819946289	-0.010866800308227538	1.068030029296875	-0.042074100494384765	-0.01693790054321289	1.043050048828125	-0.026831399917602538	-0.016628000259399416	1.0314599609375	-0.022554899215698244	-0.019819499969482422	1.0056699829101563	-0.06716010284423828	-0.022539600372314453	1.0082000122070311	-0.03288779830932617	-0.0019243999719619751	1.0434100341796875	-0.025039100646972658	0.00135148000717163	1.035199951171875	-0.018976499557495117	0.003346309900283813	1.0056199951171876	-0.06698709869384765	0.004018839836120605	1.0035	-0.036620399475097654	0.013793800354003906	1.0490899658203126	-0.02623740005493164	0.01776289939880371	1.0442099609375	-0.014455800056457519	0.024264299392700195	1.01922998046875	-0.060382598876953124	0.029047000885009767	1.008739990234375	-0.040007400512695315	0.0306382999420166	1.0508800048828124	-0.02594890022277832	0.03458089828491211	1.044300048828125	-0.020263799667358397	0.04473949813842774	1.0261199951171875	-0.056131301879882814	0.051918399810791015	1.0179299926757812	-0.068720703125	0.0157947998046875	1.08852001953125
24	0.8	-0.03916709899902344	-0.09376090240478516	1.01175	-0.03614860153198242	-0.06757160186767579	1.0254200439453125	-0.046220401763916015	-0.0496077995300293	1.05175	-0.047382801055908204	-0.011109100341796876	1.068510009765625	-0.04204949951171875	-0.01741830062866211	1.0433399658203124	-0.026954900741577147	-0.01707670021057129	1.0316600341796875	-0.022707399368286134	-0.020427799224853514	1.0058200073242187	-0.0672509994506836	-0.022979299545288087	1.0084600219726563	-0.0329838981628418	-0.002272779941558838	1.0439000244140626	-0.025145700454711914	0.000913432002067565	1.0354300537109375	-0.01904080009460449	0.0028561298847198484	1.0055	-0.06703189849853515	0.003557679891586303	1.0037000122070312	-0.03652429962158203	0.013133600234985351	1.049300048828125	-0.026342899322509765	0.017372100830078126	1.04425	-0.014581199645996093	0.02377440071105957	1.019239990234375	-0.06038299942016601	0.028607799530029298	1.0089099731445312	-0.04022389984130859	0.030376100540161134	1.0510999755859376	-0.026013200759887695	0.03418569946289062	1.0443900146484375	-0.020261199951171874	0.04430590057373047	1.0261600341796875	-0.056107898712158204	0.05148910140991211	1.018030029296875	-0.06884010314941406	0.015601099967956543	1.0886700439453125
25	0.8333333333333334	-0.0391422004699707	-0.09459889984130859	1.0126199951171875	-0.03614970016479492	-0.0683759994506836	1.0261600341796875	-0.04629579925537109	-0.050354698181152346	1.052449951171875	-0.047543201446533206	-0.01184630012512207	1.0688499755859375	-0.04202050018310547	-0.01857600021362305	1.04322998046875	-0.02689590072631836	-0.01805459976196289	1.03227001953125	-0.022560800552368164	-0.02160140037536621	1.0064099731445313	-0.06712560272216797	-0.023986900329589844	1.008969970703125	-0.03297639846801758	-0.00319225001335144	1.04468994140625	-0.025021799087524416	-7.2442799806594e-05	1.0358900146484376	-0.018863500595092772	0.001712560057640075	1.0061699829101562	-0.0669166030883789	0.002522900104522705	1.0041699829101562	-0.03548260116577148	0.01238070011138916	1.050050048828125	-0.026277599334716798	0.0164424991607666	1.044550048828125	-0.014384300231933593	0.022753299713134764	1.019760009765625	-0.06020940017700195	0.02762630081176758	1.0091099853515626	-0.040060398101806644	0.029649599075317383	1.0513199462890626	-0.02592919921875	0.03323740005493164	1.0447900390625	-0.020061899185180664	0.043212600708007816	1.026239990234375	-0.055851299285888674	0.05050289916992187	1.0180700073242188	-0.06906849670410156	0.014988900184631348	1.08931005859375
26	0.8666666666666667	-0.039121299743652346	-0.09636660003662109	1.0148499755859375	-0.03626689910888672	-0.06996420288085937	1.0280899658203124	-0.046743301391601565	-0.05179159927368164	1.0539200439453125	-0.04791759872436523	-0.013251299858093262	1.0699300537109375	-0.04197359848022461	-0.020502700805664062	1.0440999755859375	-0.026629100799560546	-0.020530000686645507	1.03347998046875	-0.022189399719238282	-0.024962900161743164	1.0078800048828125	-0.06670970153808593	-0.026198400497436523	1.0098200073242187	-0.03248369979858398	-0.005367060184478759	1.04522998046875	-0.02465169906616211	-0.0025335700511932373	1.0366700439453125	-0.01795989990234375	-0.001617930054664611	1.007219970703125	-0.06599549865722656	0.00021609500050544703	1.0046199951171875	-0.03474330139160156	0.010258099555969239	1.0502099609375	-0.02562730026245117	0.014196900367736817	1.0451500244140626	-0.013329899787902832	0.019738700866699217	1.020010009765625	-0.058993801116943356	0.02528879928588867	1.0090800170898437	-0.0393297004699707	0.028110000610351564	1.0511099853515624	-0.02509670066833496	0.031186500549316407	1.04443994140625	-0.01879249954223633	0.040447799682617185	1.0256199951171876	-0.05440010070800781	0.04829809951782227	1.0176300048828124	-0.06909600067138671	0.013995900154113769	1.0898299560546876
27	0.9	-0.03332979965209961	-0.09774510192871094	1.0160999755859375	-0.034090999603271485	-0.07164550018310546	1.030449951171875	-0.046326499938964844	-0.05370510101318359	1.0559599609375	-0.04795650100708008	-0.015074999809265136	1.0710699462890625	-0.04179380035400391	-0.022812900543212892	1.04506005859375	-0.026685400009155272	-0.023244699478149413	1.0340699462890626	-0.022620500564575194	-0.028519800186157226	1.0089199829101563	-0.06718930053710938	-0.02914780044555664	1.0112899780273437	-0.03302170181274414	-0.007808239936828614	1.046280029296875	-0.02451679992675781	-0.005209459781646728	1.0366700439453125	-0.018278600692749024	-0.0051031999588012685	1.0070900268554688	-0.0662020034790039	-0.002771759986877441	1.0054099731445312	-0.0350374984741211	0.007612319946289062	1.0490899658203126	-0.025631500244140626	0.011853400230407716	1.04456005859375	-0.013835700035095214	0.01676460075378418	1.0188900146484374	-0.05978110122680664	0.02247279930114746	1.0090999755859376	-0.03941360092163086	0.025751699447631837	1.0508399658203125	-0.025116100311279296	0.028851600646972658	1.043050048828125	-0.01962019920349121	0.03771189880371094	1.0237000122070312	-0.05551319885253906	0.045595001220703125	1.016969970703125	-0.06915039825439454	0.012386500358581543	1.090780029296875
28	0.9333333333333333	-0.02493160057067871	-0.09689250183105469	1.0158099975585937	-0.031145700454711912	-0.07287689971923828	1.032760009765625	-0.04533200073242188	-0.05562789916992188	1.0577900390625	-0.048134899139404295	-0.017218599319458006	1.0720999755859375	-0.04228390121459961	-0.024716699600219726	1.04631005859375	-0.026897199630737306	-0.025782899856567384	1.0343199462890624	-0.023218599319458008	-0.03165539932250976	1.0092000122070313	-0.06776139831542968	-0.03212990188598633	1.0123800048828124	-0.03366579818725586	-0.010069700241088867	1.046449951171875	-0.024761600494384764	-0.007576340198516845	1.0365	-0.01896820068359375	-0.008079400062561035	1.0066400146484376	-0.06680999755859375	-0.005800789833068848	1.0060700073242188	-0.03727999877929687	0.0061389698982238766	1.0499200439453125	-0.025990900039672853	0.009832639694213868	1.0436300048828124	-0.015058699607849122	0.014405400276184081	1.0173400268554686	-0.06137990188598633	0.01976059913635254	1.0092899780273437	-0.040054500579833986	0.02357480049133301	1.0495899658203125	-0.026187400817871093	0.02700790023803711	1.04106005859375	-0.021913999557495116	0.03556959915161133	1.020739990234375	-0.05814619827270508	0.043083499908447266	1.0166300048828125	-0.06949120330810547	0.010291199684143066	1.0913199462890626
29	0.9666666666666667	-0.02373460006713867	-0.09774089813232421	1.01677001953125	-0.031419099807739256	-0.07469010162353516	1.034530029296875	-0.04614690017700195	-0.05780110168457031	1.0594300537109376	-0.048977298736572264	-0.019658899307250975	1.0734100341796875	-0.04160329818725586	-0.0272455997467041	1.047449951171875	-0.026125799179077147	-0.028938999176025392	1.0347099609375	-0.023622400283813478	-0.035414600372314455	1.0097000122070312	-0.06799520111083984	-0.035022899627685546	1.013489990234375	-0.033723098754882816	-0.013031299591064454	1.047300048828125	-0.023909900665283205	-0.010745100021362305	1.0365999755859374	-0.018868600845336914	-0.011914199829101562	1.006719970703125	-0.06679489898681641	-0.008744549751281739	1.006760009765625	-0.0363307991027832	0.003204220056533813	1.0496400146484375	-0.025586799621582033	0.007116889953613282	1.0429000244140625	-0.015235400199890137	0.011237099647521972	1.0162999877929688	-0.0618306999206543	0.016882699966430666	1.0095800170898437	-0.04014870071411133	0.021101900100708008	1.04897998046875	-0.026006200790405273	0.024597000122070313	1.039	-0.022395000457763672	0.032870201110839846	1.0189500122070312	-0.059218101501464844	0.04049610137939453	1.016760009765625	-0.07035079956054688	0.008347640037536621	1.092489990234375
